<svg xmlns="http://www.w3.org/2000/svg" width="193.772" height="120.809" viewBox="0.115 4.596 193.772 120.809"><path d="M3.126 26.931c-24.739-44.605 112.271-9.828 71.749-2.688-15.732 2.772-55.046-25.852-63.473-.209-1.011 3.07-6.739 5.667-8.276 2.897z"/><path d="M34.666 43.82c-9.793-.493-32.149.087-24.405-11.801 5.001-7.679 64.687-12.035 70.179 2.583 4.821 12.843-32.545 9.883-45.774 9.218zm92.592 81.584c-19.518-7.229-46.085-11.87-66.406-5.1-47.378 0 23.414-7.594 33.902-9.22 16.926-2.619 74.228 7.337 32.504 14.32zm-13.583-38.241c-12.354-3.735-43.021-1.052-44.339-7.296-.815-3.86 60.684-5.902 50.241 5.935-3.002 1.115-3.002 1.115-5.902 1.361zm72.136-71.07c-1.076-3.269-5.844-.793-7.443-.203-6.133 2.26-14.801-6.409-46.333 3.328-26.659 2.387-35.832 30.681-6.286 29.816 12.51-.365 32.427 17.305 48.011 6.078 22.952-16.544 7.599 31.382 14.121 36.89 3.685 3.105 6.118-18.613 6.003-23.568-.224-9.066-1.835-33.421-8.073-52.341z"/></svg>